<svg width="21" height="21" viewBox="0 0 21 21" fill="none" xmlns="http://www.w3.org/2000/svg">
<path d="M16.4392 5.38778L5.18917 16.6378C5.07189 16.7551 4.91283 16.8209 4.74698 16.8209C4.58113 16.8209 4.42207 16.7551 4.30479 16.6378C4.18752 16.5205 4.12163 16.3614 4.12163 16.1956C4.12163 16.0297 4.18752 15.8707 4.30479 15.7534L15.5548 4.50341C15.672 4.38613 15.8309 4.3202 15.9967 4.32013C16.1625 4.32006 16.3215 4.38584 16.4388 4.50301C16.5561 4.62019 16.622 4.77915 16.6221 4.94493C16.6221 5.11071 16.5563 5.26972 16.4392 5.387V5.38778ZM4.32042 8.49716C3.79299 7.96962 3.49672 7.25418 3.4968 6.50821C3.49687 5.76224 3.79327 5.04685 4.32081 4.51942C4.84834 3.99199 5.56378 3.69573 6.30975 3.6958C7.05572 3.69587 7.77111 3.99228 8.29854 4.51981C8.82597 5.04734 9.12223 5.76279 9.12216 6.50876C9.12209 7.25473 8.82568 7.97012 8.29815 8.49755C7.77062 9.02497 7.05517 9.32124 6.3092 9.32117C5.56323 9.32109 4.84784 9.02469 4.32042 8.49716ZM4.74698 6.50966C4.74718 6.76657 4.81073 7.01947 4.932 7.24596C5.05327 7.47245 5.22851 7.66554 5.44222 7.80814C5.65592 7.95074 5.90149 8.03844 6.15718 8.06349C6.41287 8.08853 6.67079 8.05014 6.9081 7.95171C7.14541 7.85328 7.35479 7.69786 7.51769 7.4992C7.6806 7.30054 7.79201 7.06477 7.84205 6.81278C7.89209 6.56079 7.87923 6.30035 7.80459 6.05451C7.72996 5.80868 7.59586 5.58504 7.41417 5.40341C7.19555 5.18486 6.91703 5.03607 6.61383 4.97585C6.31064 4.91564 5.99639 4.94672 5.71086 5.06514C5.42533 5.18357 5.18134 5.38403 5.00976 5.64116C4.83819 5.89829 4.74674 6.20054 4.74698 6.50966ZM17.247 14.6347C17.2468 15.2853 17.0211 15.9158 16.6082 16.4187C16.1953 16.9216 15.6208 17.2658 14.9826 17.3926C14.3444 17.5194 13.6819 17.421 13.1082 17.1141C12.5344 16.8073 12.0847 16.311 11.8359 15.7098C11.587 15.1086 11.5542 14.4397 11.7432 13.8171C11.9322 13.1944 12.3313 12.6566 12.8724 12.2952C13.4134 11.9338 14.0631 11.7712 14.7106 11.8351C15.3582 11.899 15.9635 12.1854 16.4235 12.6456C16.6855 12.9062 16.8932 13.2162 17.0345 13.5576C17.1759 13.8991 17.2481 14.2651 17.247 14.6347ZM15.997 14.6347C15.9971 14.2732 15.8718 13.9228 15.6425 13.6433C15.4132 13.3638 15.0941 13.1725 14.7396 13.1019C14.3851 13.0313 14.017 13.0858 13.6982 13.2562C13.3793 13.4265 13.1294 13.7022 12.991 14.0361C12.8526 14.3701 12.8343 14.7417 12.9392 15.0876C13.0441 15.4336 13.2656 15.7325 13.5662 15.9333C13.8667 16.1342 14.2276 16.2247 14.5874 16.1893C14.9471 16.1539 15.2835 15.9949 15.5392 15.7393C15.6847 15.5946 15.8001 15.4225 15.8787 15.2329C15.9573 15.0432 15.9975 14.8399 15.997 14.6347Z" fill="white" fill-opacity="0.7"/>
</svg>
