<svg width="21" height="21" viewBox="0 0 21 21" fill="none" xmlns="http://www.w3.org/2000/svg">
<path d="M16.2507 9.03137C16.2507 9.19713 16.1849 9.3561 16.0676 9.47331C15.9504 9.59052 15.7915 9.65637 15.6257 9.65637H12.5007C12.3349 9.65637 12.176 9.59052 12.0588 9.47331C11.9415 9.3561 11.8757 9.19713 11.8757 9.03137C11.8757 8.86561 11.9415 8.70664 12.0588 8.58943C12.176 8.47222 12.3349 8.40637 12.5007 8.40637H15.6257C15.7915 8.40637 15.9504 8.47222 16.0676 8.58943C16.1849 8.70664 16.2507 8.86561 16.2507 9.03137ZM15.6257 10.9064H12.5007C12.3349 10.9064 12.176 10.9722 12.0588 11.0894C11.9415 11.2066 11.8757 11.3656 11.8757 11.5314C11.8757 11.6971 11.9415 11.8561 12.0588 11.9733C12.176 12.0905 12.3349 12.1564 12.5007 12.1564H15.6257C15.7915 12.1564 15.9504 12.0905 16.0676 11.9733C16.1849 11.8561 16.2507 11.6971 16.2507 11.5314C16.2507 11.3656 16.1849 11.2066 16.0676 11.0894C15.9504 10.9722 15.7915 10.9064 15.6257 10.9064ZM18.7507 4.65637V15.9064C18.7507 16.2379 18.619 16.5558 18.3846 16.7903C18.1502 17.0247 17.8322 17.1564 17.5007 17.1564H3.7507C3.41918 17.1564 3.10124 17.0247 2.86682 16.7903C2.6324 16.5558 2.5007 16.2379 2.5007 15.9064V4.65637C2.5007 4.32485 2.6324 4.00691 2.86682 3.77249C3.10124 3.53807 3.41918 3.40637 3.7507 3.40637H17.5007C17.8322 3.40637 18.1502 3.53807 18.3846 3.77249C18.619 4.00691 18.7507 4.32485 18.7507 4.65637ZM17.5007 15.9064V4.65637H3.7507V15.9064H17.5007ZM11.2304 13.2501C11.2718 13.4107 11.2478 13.5812 11.1635 13.724C11.0793 13.8669 10.9418 13.9704 10.7812 14.0118C10.6206 14.0533 10.4501 14.0292 10.3073 13.945C10.1644 13.8607 10.0609 13.7232 10.0195 13.5626C9.81398 12.7611 8.99914 12.1564 8.12492 12.1564C7.2507 12.1564 6.43664 12.7611 6.23039 13.5626C6.18895 13.7232 6.08542 13.8607 5.94257 13.945C5.79972 14.0292 5.62925 14.0533 5.46867 14.0118C5.30809 13.9704 5.17055 13.8669 5.0863 13.724C5.00206 13.5812 4.97801 13.4107 5.01945 13.2501C5.22226 12.4952 5.70168 11.8443 6.36242 11.4267C6.0113 11.0776 5.77172 10.6322 5.67405 10.1469C5.57638 9.6615 5.62502 9.15808 5.8138 8.70039C6.00258 8.24271 6.323 7.85139 6.73445 7.57603C7.14589 7.30066 7.62983 7.15367 8.12492 7.15367C8.62001 7.15367 9.10395 7.30066 9.51539 7.57603C9.92684 7.85139 10.2473 8.24271 10.436 8.70039C10.6248 9.15808 10.6735 9.6615 10.5758 10.1469C10.4781 10.6322 10.2385 11.0776 9.88742 11.4267C10.5489 11.8437 11.0287 12.4948 11.2312 13.2501H11.2304ZM8.1257 10.9064C8.37293 10.9064 8.6146 10.8331 8.82016 10.6957C9.02573 10.5584 9.18594 10.3631 9.28055 10.1347C9.37516 9.90632 9.39992 9.65499 9.35168 9.41251C9.30345 9.17003 9.1844 8.9473 9.00959 8.77249C8.83477 8.59767 8.61204 8.47862 8.36957 8.43039C8.12709 8.38216 7.87576 8.40691 7.64735 8.50152C7.41894 8.59613 7.22372 8.75635 7.08636 8.96191C6.94901 9.16747 6.8757 9.40915 6.8757 9.65637C6.8757 9.98789 7.0074 10.3058 7.24182 10.5403C7.47624 10.7747 7.79418 10.9064 8.1257 10.9064Z" fill="white" fill-opacity="0.7"/>
</svg>
