<svg width="21" height="21" viewBox="0 0 21 21" fill="none" xmlns="http://www.w3.org/2000/svg">
<path d="M14.8198 9.4375C14.8198 9.60326 14.7539 9.76223 14.6367 9.87944C14.5195 9.99665 14.3606 10.0625 14.1948 10.0625H9.19479C9.02903 10.0625 8.87006 9.99665 8.75285 9.87944C8.63564 9.76223 8.56979 9.60326 8.56979 9.4375C8.56979 9.27174 8.63564 9.11277 8.75285 8.99556C8.87006 8.87835 9.02903 8.8125 9.19479 8.8125H14.1948C14.3606 8.8125 14.5195 8.87835 14.6367 8.99556C14.7539 9.11277 14.8198 9.27174 14.8198 9.4375ZM14.1948 11.3125H9.19479C9.02903 11.3125 8.87006 11.3783 8.75285 11.4956C8.63564 11.6128 8.56979 11.7717 8.56979 11.9375C8.56979 12.1033 8.63564 12.2622 8.75285 12.3794C8.87006 12.4967 9.02903 12.5625 9.19479 12.5625H14.1948C14.3606 12.5625 14.5195 12.4967 14.6367 12.3794C14.7539 12.2622 14.8198 12.1033 14.8198 11.9375C14.8198 11.7717 14.7539 11.6128 14.6367 11.4956C14.5195 11.3783 14.3606 11.3125 14.1948 11.3125ZM17.9448 4.4375V16.9375C17.9448 17.269 17.8131 17.587 17.5787 17.8214C17.3443 18.0558 17.0263 18.1875 16.6948 18.1875H4.19479C3.86327 18.1875 3.54533 18.0558 3.31091 17.8214C3.07649 17.587 2.94479 17.269 2.94479 16.9375V4.4375C2.94479 4.10598 3.07649 3.78804 3.31091 3.55362C3.54533 3.3192 3.86327 3.1875 4.19479 3.1875H16.6948C17.0263 3.1875 17.3443 3.3192 17.5787 3.55362C17.8131 3.78804 17.9448 4.10598 17.9448 4.4375ZM4.19479 16.9375H6.06979V4.4375H4.19479V16.9375ZM16.6948 16.9375V4.4375H7.31979V16.9375H16.6948Z" fill="white" fill-opacity="0.7"/>
</svg>
