<svg width="21" height="21" viewBox="0 0 21 21" fill="none" xmlns="http://www.w3.org/2000/svg">
<path d="M17.6583 14.3863C17.2247 13.6394 16.5801 11.5261 16.5801 8.76599C16.5801 7.10839 15.9217 5.51868 14.7496 4.34657C13.5775 3.17447 11.9878 2.51599 10.3301 2.51599C8.67255 2.51599 7.08283 3.17447 5.91073 4.34657C4.73863 5.51868 4.08015 7.10839 4.08015 8.76599C4.08015 11.5269 3.43484 13.6394 3.00124 14.3863C2.89052 14.5762 2.83182 14.7919 2.83106 15.0117C2.83031 15.2315 2.88753 15.4476 2.99695 15.6383C3.10636 15.8289 3.26412 15.9873 3.45429 16.0975C3.64447 16.2077 3.86035 16.2658 4.08015 16.266H7.26843C7.41263 16.9716 7.79611 17.6057 8.354 18.0611C8.9119 18.5165 9.60997 18.7653 10.3301 18.7653C11.0503 18.7653 11.7484 18.5165 12.3063 18.0611C12.8642 17.6057 13.2477 16.9716 13.3919 16.266H16.5801C16.7999 16.2657 17.0157 16.2075 17.2057 16.0972C17.3958 15.9869 17.5534 15.8285 17.6628 15.6379C17.7721 15.4473 17.8292 15.2312 17.8285 15.0115C17.8277 14.7918 17.769 14.5761 17.6583 14.3863ZM10.3301 17.516C9.94251 17.5159 9.56443 17.3956 9.24796 17.1718C8.93149 16.9479 8.69218 16.6315 8.56296 16.266H12.0973C11.9681 16.6315 11.7288 16.9479 11.4123 17.1718C11.0959 17.3956 10.7178 17.5159 10.3301 17.516ZM4.08015 15.016C4.68171 13.9816 5.33015 11.5847 5.33015 8.76599C5.33015 7.43991 5.85693 6.16814 6.79462 5.23046C7.7323 4.29278 9.00407 3.76599 10.3301 3.76599C11.6562 3.76599 12.928 4.29278 13.8657 5.23046C14.8034 6.16814 15.3301 7.43991 15.3301 8.76599C15.3301 11.5824 15.977 13.9793 16.5801 15.016H4.08015Z" fill="white" fill-opacity="0.7"/>
</svg>
