<svg width="21" height="21" viewBox="0 0 21 21" fill="none" xmlns="http://www.w3.org/2000/svg">
<path d="M18.4163 16.5099H17.7913V4.00989C17.7913 3.84413 17.7255 3.68516 17.6083 3.56795C17.4911 3.45074 17.3321 3.38489 17.1663 3.38489H12.7913C12.6256 3.38489 12.4666 3.45074 12.3494 3.56795C12.2322 3.68516 12.1663 3.84413 12.1663 4.00989V7.13489H8.41632C8.25056 7.13489 8.09159 7.20074 7.97438 7.31795C7.85717 7.43516 7.79132 7.59413 7.79132 7.75989V10.8849H4.66632C4.50056 10.8849 4.34159 10.9507 4.22438 11.0679C4.10717 11.1852 4.04132 11.3441 4.04132 11.5099V16.5099H3.41632C3.25056 16.5099 3.09159 16.5757 2.97438 16.6929C2.85717 16.8102 2.79132 16.9691 2.79132 17.1349C2.79132 17.3006 2.85717 17.4596 2.97438 17.5768C3.09159 17.694 3.25056 17.7599 3.41632 17.7599H18.4163C18.5821 17.7599 18.7411 17.694 18.8583 17.5768C18.9755 17.4596 19.0413 17.3006 19.0413 17.1349C19.0413 16.9691 18.9755 16.8102 18.8583 16.6929C18.7411 16.5757 18.5821 16.5099 18.4163 16.5099ZM13.4163 4.63489H16.5413V16.5099H13.4163V4.63489ZM9.04132 8.38489H12.1663V16.5099H9.04132V8.38489ZM5.29132 12.1349H7.79132V16.5099H5.29132V12.1349Z" fill="white"/>
</svg>
