<svg width="21" height="21" viewBox="0 0 21 21" fill="none" xmlns="http://www.w3.org/2000/svg">
<path d="M16.4398 3.43591H3.93976C3.60824 3.43591 3.2903 3.56761 3.05587 3.80203C2.82145 4.03645 2.68976 4.35439 2.68976 4.68591V9.06091C2.68976 13.1797 4.68351 15.6758 6.35616 17.0445C8.15773 18.5179 9.94991 19.0179 10.028 19.039C10.1355 19.0683 10.2487 19.0683 10.3562 19.039C10.4343 19.0179 12.2241 18.5179 14.028 17.0445C15.696 15.6758 17.6898 13.1797 17.6898 9.06091V4.68591C17.6898 4.35439 17.5581 4.03645 17.3236 3.80203C17.0892 3.56761 16.7713 3.43591 16.4398 3.43591ZM13.2679 16.0469C12.3517 16.8013 11.3097 17.3884 10.1898 17.7812C9.08445 17.3953 8.05534 16.8186 7.14913 16.0773C6.39555 15.4687 5.74844 14.7389 5.23429 13.9179L10.1898 10.4492L15.1452 13.9179C14.64 14.7254 14.0058 15.4446 13.2679 16.0469ZM16.4398 9.06091C16.4398 10.4312 16.2017 11.6771 15.7257 12.7984L10.5484 9.17419C10.4433 9.10058 10.3181 9.06109 10.1898 9.06109C10.0615 9.06109 9.93625 9.10058 9.83116 9.17419L4.65304 12.7984C4.17882 11.6797 3.93976 10.4312 3.93976 9.06091V4.68591H16.4398V9.06091Z" fill="white"/>
</svg>
