<svg width="21" height="21" viewBox="0 0 21 21" fill="none" xmlns="http://www.w3.org/2000/svg">
<path d="M10.6774 6.34658C9.93575 6.34658 9.21072 6.56652 8.59404 6.97857C7.97735 7.39063 7.49671 7.9763 7.21288 8.66152C6.92905 9.34674 6.85479 10.1007 6.99948 10.8282C7.14418 11.5556 7.50133 12.2238 8.02577 12.7482C8.55022 13.2727 9.21841 13.6298 9.94584 13.7745C10.6733 13.9192 11.4273 13.845 12.1125 13.5611C12.7977 13.2773 13.3834 12.7967 13.7954 12.18C14.2075 11.5633 14.4274 10.8383 14.4274 10.0966C14.4264 9.10234 14.031 8.14911 13.3279 7.44608C12.6249 6.74304 11.6717 6.34762 10.6774 6.34658ZM10.6774 12.5966C10.183 12.5966 9.69962 12.45 9.2885 12.1753C8.87738 11.9006 8.55694 11.5101 8.36773 11.0533C8.17851 10.5965 8.129 10.0938 8.22546 9.60886C8.32192 9.12391 8.56003 8.67845 8.90966 8.32882C9.25929 7.97919 9.70475 7.74108 10.1897 7.64462C10.6747 7.54816 11.1773 7.59767 11.6341 7.78688C12.0909 7.9761 12.4814 8.29654 12.7561 8.70766C13.0308 9.11878 13.1774 9.60213 13.1774 10.0966C13.1774 10.7596 12.914 11.3955 12.4452 11.8644C11.9764 12.3332 11.3405 12.5966 10.6774 12.5966ZM19.2665 8.47236C19.2491 8.38435 19.2129 8.30112 19.1605 8.22832C19.108 8.15553 19.0406 8.09488 18.9626 8.05049L16.6321 6.72236L16.6227 4.0958C16.6225 4.00534 16.6025 3.91603 16.5644 3.83402C16.5262 3.75201 16.4707 3.67926 16.4016 3.6208C15.5563 2.90572 14.5828 2.35773 13.5329 2.00596C13.4502 1.97797 13.3626 1.96762 13.2757 1.97556C13.1887 1.9835 13.1044 2.00955 13.0282 2.05205L10.6774 3.36611L8.3243 2.04971C8.24801 2.00697 8.16361 1.98072 8.07654 1.97264C7.98947 1.96457 7.90168 1.97485 7.81883 2.00283C6.76973 2.35718 5.79734 2.90726 4.95321 3.62393C4.88428 3.6823 4.82882 3.75492 4.79065 3.83679C4.75248 3.91865 4.73251 4.00782 4.73211 4.09815L4.72039 6.72705L2.38993 8.05518C2.31196 8.09956 2.24446 8.16022 2.19202 8.23301C2.13958 8.30581 2.10343 8.38904 2.08602 8.47705C1.87273 9.54884 1.87273 10.6521 2.08602 11.7239C2.10343 11.8119 2.13958 11.8952 2.19202 11.968C2.24446 12.0408 2.31196 12.1014 2.38993 12.1458L4.72039 13.4739L4.72977 16.1005C4.73005 16.1909 4.74997 16.2803 4.78814 16.3623C4.82631 16.4443 4.88183 16.517 4.95086 16.5755C5.79623 17.2906 6.76973 17.8386 7.81961 18.1903C7.90229 18.2183 7.98991 18.2287 8.07684 18.2207C8.16376 18.2128 8.24806 18.1867 8.3243 18.1442L10.6774 16.8271L13.0306 18.1435C13.1237 18.1953 13.2286 18.2223 13.3352 18.2216C13.4035 18.2216 13.4713 18.2105 13.536 18.1888C14.585 17.8349 15.5574 17.2854 16.4016 16.5692C16.4706 16.5109 16.526 16.4382 16.5642 16.3564C16.6024 16.2745 16.6223 16.1853 16.6227 16.095L16.6345 13.4661L18.9649 12.138C19.0429 12.0936 19.1104 12.033 19.1628 11.9602C19.2153 11.8874 19.2514 11.8041 19.2688 11.7161C19.4809 10.6452 19.4801 9.54298 19.2665 8.47236ZM18.0946 11.1997L15.8626 12.4692C15.7648 12.5248 15.6838 12.6058 15.6282 12.7036C15.5829 12.7817 15.5352 12.8646 15.4868 12.9427C15.4248 13.0412 15.3918 13.1552 15.3915 13.2716L15.3798 15.7911C14.7798 16.2623 14.1114 16.639 13.3977 16.9083L11.1462 15.6536C11.0527 15.6019 10.9475 15.575 10.8407 15.5755H10.8259C10.7313 15.5755 10.636 15.5755 10.5415 15.5755C10.4297 15.5727 10.3191 15.5997 10.2212 15.6536L7.96805 16.9114C7.25282 16.6442 6.5826 16.2693 5.98055 15.7997L5.97196 13.2841C5.97157 13.1674 5.93856 13.0532 5.87664 12.9544C5.82821 12.8763 5.78055 12.7981 5.73602 12.7153C5.6808 12.616 5.59984 12.5334 5.50164 12.4763L3.26727 11.2036C3.15164 10.4722 3.15164 9.7272 3.26727 8.9958L5.49539 7.72393C5.59319 7.66832 5.67416 7.58735 5.72977 7.48955C5.77508 7.41143 5.82274 7.32861 5.87118 7.25049C5.93318 7.15197 5.96621 7.03799 5.96649 6.92158L5.97821 4.40205C6.57815 3.93092 7.24653 3.55418 7.96024 3.28486L10.2087 4.53955C10.3065 4.59379 10.4171 4.62077 10.529 4.61768C10.6235 4.61768 10.7188 4.61768 10.8134 4.61768C10.9252 4.62047 11.0357 4.59351 11.1337 4.53955L13.3868 3.28174C14.102 3.54899 14.7723 3.92388 15.3743 4.39346L15.3829 6.90908C15.3833 7.02572 15.4163 7.13992 15.4782 7.23877C15.5266 7.3169 15.5743 7.39502 15.6188 7.47783C15.674 7.57714 15.755 7.65973 15.8532 7.7169L18.0876 8.98955C18.2048 9.72151 18.2061 10.4673 18.0915 11.1997H18.0946Z" fill="white" fill-opacity="0.7"/>
</svg>
