<svg width="21" height="21" viewBox="0 0 21 21" fill="none" xmlns="http://www.w3.org/2000/svg">
<g clip-path="url(#clip0_8_282)">
<path d="M16.3444 4.91912C15.5968 4.16394 14.7075 3.56366 13.7275 3.15264C12.7476 2.74161 11.6962 2.52792 10.6335 2.5238H10.5718C8.41689 2.5238 6.35027 3.37983 4.82653 4.90356C3.3028 6.42729 2.44678 8.49392 2.44678 10.6488V15.0238C2.44678 15.5211 2.64432 15.998 2.99595 16.3496C3.34758 16.7013 3.8245 16.8988 4.32178 16.8988H5.57178C6.06906 16.8988 6.54597 16.7013 6.8976 16.3496C7.24923 15.998 7.44678 15.5211 7.44678 15.0238V11.8988C7.44678 11.4015 7.24923 10.9246 6.8976 10.573C6.54597 10.2213 6.06906 10.0238 5.57178 10.0238H3.7249C3.84544 8.72063 4.33493 7.47881 5.13602 6.44389C5.9371 5.40897 7.01659 4.62383 8.24795 4.18049C9.47931 3.73716 10.8115 3.654 12.0885 3.94076C13.3654 4.22752 14.5341 4.87232 15.4577 5.79958C16.5865 6.93419 17.2809 8.42932 17.4194 10.0238H15.5718C15.0745 10.0238 14.5976 10.2213 14.246 10.573C13.8943 10.9246 13.6968 11.4015 13.6968 11.8988V15.0238C13.6968 15.5211 13.8943 15.998 14.246 16.3496C14.5976 16.7013 15.0745 16.8988 15.5718 16.8988H17.4468C17.4468 17.3961 17.2492 17.873 16.8976 18.2246C16.546 18.5763 16.0691 18.7738 15.5718 18.7738H11.1968C11.031 18.7738 10.872 18.8397 10.7548 18.9569C10.6376 19.0741 10.5718 19.233 10.5718 19.3988C10.5718 19.5646 10.6376 19.7235 10.7548 19.8407C10.872 19.958 11.031 20.0238 11.1968 20.0238H15.5718C16.4006 20.0238 17.1954 19.6946 17.7815 19.1085C18.3675 18.5225 18.6968 17.7276 18.6968 16.8988V10.6488C18.7008 9.58597 18.4952 8.53278 18.0915 7.54958C17.6878 6.56637 17.0941 5.67248 16.3444 4.91912ZM5.57178 11.2738C5.73754 11.2738 5.89651 11.3397 6.01372 11.4569C6.13093 11.5741 6.19678 11.733 6.19678 11.8988V15.0238C6.19678 15.1896 6.13093 15.3485 6.01372 15.4657C5.89651 15.583 5.73754 15.6488 5.57178 15.6488H4.32178C4.15602 15.6488 3.99705 15.583 3.87984 15.4657C3.76263 15.3485 3.69678 15.1896 3.69678 15.0238V11.2738H5.57178ZM15.5718 15.6488C15.406 15.6488 15.247 15.583 15.1298 15.4657C15.0126 15.3485 14.9468 15.1896 14.9468 15.0238V11.8988C14.9468 11.733 15.0126 11.5741 15.1298 11.4569C15.247 11.3397 15.406 11.2738 15.5718 11.2738H17.4468V15.6488H15.5718Z" fill="white" fill-opacity="0.7"/>
</g>
<defs>
<clipPath id="clip0_8_282">
<rect width="20" height="20" fill="white" transform="translate(0.571777 0.648804)"/>
</clipPath>
</defs>
</svg>
