<svg width="21" height="21" viewBox="0 0 21 21" fill="none" xmlns="http://www.w3.org/2000/svg">
<g clip-path="url(#clip0_8_285)">
<path d="M19.8169 12.0679C19.7513 12.1172 19.6766 12.153 19.5971 12.1734C19.5176 12.1937 19.4348 12.1983 19.3536 12.1866C19.2723 12.175 19.1941 12.1475 19.1235 12.1057C19.0529 12.0639 18.9912 12.0086 18.9419 11.9429C18.5652 11.4366 18.0749 11.0257 17.5104 10.7435C16.9459 10.4612 16.3231 10.3155 15.6919 10.3179C15.569 10.3179 15.4489 10.2817 15.3465 10.2137C15.2441 10.1458 15.1639 10.0491 15.1162 9.9359C15.0837 9.859 15.067 9.77639 15.067 9.69293C15.067 9.60947 15.0837 9.52686 15.1162 9.44996C15.1639 9.33672 15.2441 9.24009 15.3465 9.17214C15.4489 9.10419 15.569 9.06794 15.6919 9.06793C16.0426 9.0679 16.3863 8.96952 16.6838 8.78398C16.9814 8.59843 17.221 8.33315 17.3754 8.01827C17.5297 7.70339 17.5927 7.35154 17.5571 7.00267C17.5215 6.65379 17.3888 6.32189 17.1741 6.04467C16.9593 5.76744 16.6711 5.55599 16.3422 5.43435C16.0133 5.3127 15.6568 5.28574 15.3134 5.35651C14.9699 5.42728 14.6532 5.59296 14.3992 5.83472C14.1451 6.07648 13.964 6.38463 13.8763 6.72418C13.8558 6.80369 13.8198 6.87838 13.7704 6.94399C13.7211 7.00959 13.6592 7.06483 13.5885 7.10655C13.5178 7.14826 13.4395 7.17563 13.3582 7.1871C13.2769 7.19857 13.1941 7.19392 13.1146 7.1734C13.0351 7.15288 12.9604 7.1169 12.8948 7.06751C12.8292 7.01813 12.774 6.95631 12.7322 6.88557C12.6905 6.81484 12.6631 6.73659 12.6517 6.65528C12.6402 6.57396 12.6449 6.49119 12.6654 6.41168C12.7871 5.94083 13.017 5.50488 13.3368 5.13852C13.6566 4.77215 14.0575 4.48549 14.5076 4.30133C14.9577 4.11717 15.4446 4.0406 15.9295 4.07772C16.4144 4.11483 16.8839 4.26461 17.3008 4.51513C17.7176 4.76564 18.0702 5.10998 18.3305 5.52076C18.5909 5.93153 18.7517 6.39739 18.8003 6.88127C18.8489 7.36515 18.7839 7.8537 18.6105 8.30805C18.4371 8.76239 18.16 9.16998 17.8013 9.4984C18.6512 9.86636 19.39 10.4503 19.9443 11.1921C19.9935 11.258 20.0293 11.3329 20.0496 11.4125C20.0698 11.4922 20.0742 11.5751 20.0623 11.6565C20.0505 11.7378 20.0227 11.816 19.9806 11.8866C19.9385 11.9572 19.8829 12.0189 19.8169 12.0679ZM15.6076 16.8804C15.6528 16.9516 15.6832 17.0311 15.6968 17.1143C15.7105 17.1975 15.7072 17.2825 15.6872 17.3644C15.6671 17.4463 15.6307 17.5233 15.5801 17.5907C15.5296 17.6581 15.4659 17.7146 15.3929 17.7568C15.3199 17.799 15.2392 17.826 15.1555 17.8362C15.0718 17.8463 14.9869 17.8395 14.906 17.816C14.825 17.7925 14.7497 17.7529 14.6844 17.6995C14.6192 17.6461 14.5654 17.5801 14.5263 17.5054C14.1326 16.8388 13.5719 16.2863 12.8995 15.9025C12.2271 15.5187 11.4662 15.3168 10.6919 15.3168C9.91771 15.3168 9.15684 15.5187 8.48443 15.9025C7.81201 16.2863 7.25129 16.8388 6.85757 17.5054C6.8185 17.5801 6.76472 17.6461 6.69948 17.6995C6.63423 17.7529 6.55886 17.7925 6.47791 17.816C6.39695 17.8395 6.31208 17.8463 6.22841 17.8362C6.14473 17.826 6.06397 17.799 5.99099 17.7568C5.91801 17.7146 5.85432 17.6581 5.80375 17.5907C5.75318 17.5233 5.71677 17.4463 5.69672 17.3644C5.67666 17.2825 5.67338 17.1975 5.68706 17.1143C5.70074 17.0311 5.7311 16.9516 5.77632 16.8804C6.38226 15.8393 7.30616 15.02 8.41226 14.5429C7.78986 14.0664 7.33244 13.4068 7.10429 12.6569C6.87615 11.9069 6.88874 11.1043 7.14032 10.3619C7.39189 9.61951 7.86979 8.97459 8.50685 8.51783C9.1439 8.06107 9.90807 7.81543 10.6919 7.81543C11.4758 7.81543 12.24 8.06107 12.8771 8.51783C13.5141 8.97459 13.992 9.61951 14.2436 10.3619C14.4952 11.1043 14.5078 11.9069 14.2796 12.6569C14.0515 13.4068 13.594 14.0664 12.9716 14.5429C14.0777 15.02 15.0016 15.8393 15.6076 16.8804ZM10.6919 14.0679C11.1864 14.0679 11.6698 13.9213 12.0809 13.6466C12.492 13.3719 12.8124 12.9815 13.0016 12.5246C13.1909 12.0678 13.2404 11.5652 13.1439 11.0802C13.0474 10.5953 12.8093 10.1498 12.4597 9.80016C12.1101 9.45053 11.6646 9.21243 11.1797 9.11597C10.6947 9.0195 10.1921 9.06901 9.73524 9.25823C9.27842 9.44745 8.88798 9.76788 8.61327 10.179C8.33857 10.5901 8.19195 11.0735 8.19195 11.5679C8.19195 12.231 8.45534 12.8669 8.92418 13.3357C9.39302 13.8045 10.0289 14.0679 10.6919 14.0679ZM6.31695 9.69293C6.31695 9.52717 6.2511 9.3682 6.13389 9.25099C6.01668 9.13378 5.85771 9.06793 5.69195 9.06793C5.34127 9.0679 4.99762 8.96952 4.70005 8.78398C4.40247 8.59843 4.1629 8.33315 4.00854 8.01827C3.85417 7.70339 3.79121 7.35154 3.82679 7.00267C3.86238 6.65379 3.99509 6.32189 4.20984 6.04467C4.4246 5.76744 4.71281 5.55599 5.04171 5.43435C5.37062 5.3127 5.72705 5.28574 6.07052 5.35651C6.41398 5.42728 6.73072 5.59296 6.98474 5.83472C7.23877 6.07648 7.4199 6.38463 7.50757 6.72418C7.54901 6.88476 7.65255 7.0223 7.7954 7.10655C7.93825 7.19079 8.10871 7.21484 8.26929 7.1734C8.42987 7.13196 8.56741 7.02842 8.65166 6.88557C8.7359 6.74272 8.75995 6.57226 8.71851 6.41168C8.59683 5.94083 8.36693 5.50488 8.04711 5.13852C7.7273 4.77215 7.32639 4.48549 6.87629 4.30133C6.42619 4.11717 5.93931 4.0406 5.45442 4.07772C4.96952 4.11483 4.49997 4.26461 4.08314 4.51513C3.66631 4.76564 3.3137 5.10998 3.05337 5.52076C2.79304 5.93153 2.63217 6.39739 2.58356 6.88127C2.53496 7.36515 2.59996 7.8537 2.77339 8.30805C2.94682 8.76239 3.2239 9.16998 3.58257 9.4984C2.73358 9.86671 1.99563 10.4506 1.44195 11.1921C1.34239 11.3248 1.29958 11.4915 1.32295 11.6557C1.34632 11.8198 1.43395 11.968 1.56656 12.0675C1.69917 12.1671 1.86589 12.2099 2.03006 12.1865C2.19423 12.1632 2.34239 12.0755 2.44195 11.9429C2.81866 11.4366 3.30899 11.0257 3.87348 10.7435C4.43797 10.4612 5.06084 10.3155 5.69195 10.3179C5.85771 10.3179 6.01668 10.2521 6.13389 10.1349C6.2511 10.0177 6.31695 9.85869 6.31695 9.69293Z" fill="white" fill-opacity="0.7"/>
</g>
<defs>
<clipPath id="clip0_8_285">
<rect width="20" height="20" fill="white" transform="translate(0.691956 0.317871)"/>
</clipPath>
</defs>
</svg>
