<svg width="14" height="18" viewBox="0 0 14 18" fill="none" xmlns="http://www.w3.org/2000/svg">
<path d="M10.2064 8.96362C10.2064 9.12938 10.1405 9.28835 10.0233 9.40557C9.90609 9.52278 9.74712 9.58862 9.58136 9.58862H4.58136C4.4156 9.58862 4.25663 9.52278 4.13942 9.40557C4.02221 9.28835 3.95636 9.12938 3.95636 8.96362C3.95636 8.79786 4.02221 8.63889 4.13942 8.52168C4.25663 8.40447 4.4156 8.33862 4.58136 8.33862H9.58136C9.74712 8.33862 9.90609 8.40447 10.0233 8.52168C10.1405 8.63889 10.2064 8.79786 10.2064 8.96362ZM9.58136 10.8386H4.58136C4.4156 10.8386 4.25663 10.9045 4.13942 11.0217C4.02221 11.1389 3.95636 11.2979 3.95636 11.4636C3.95636 11.6294 4.02221 11.7884 4.13942 11.9056C4.25663 12.0228 4.4156 12.0886 4.58136 12.0886H9.58136C9.74712 12.0886 9.90609 12.0228 10.0233 11.9056C10.1405 11.7884 10.2064 11.6294 10.2064 11.4636C10.2064 11.2979 10.1405 11.1389 10.0233 11.0217C9.90609 10.9045 9.74712 10.8386 9.58136 10.8386ZM13.9564 2.08862V14.5886C13.9564 15.2517 13.693 15.8875 13.2241 16.3564C12.7553 16.8252 12.1194 17.0886 11.4564 17.0886H2.70636C2.04332 17.0886 1.40743 16.8252 0.938593 16.3564C0.469752 15.8875 0.20636 15.2517 0.20636 14.5886V2.08862C0.20636 1.92286 0.272208 1.76389 0.389418 1.64668C0.506628 1.52947 0.6656 1.46362 0.83136 1.46362H2.70636V0.838623C2.70636 0.672863 2.77221 0.513892 2.88942 0.396681C3.00663 0.279471 3.1656 0.213623 3.33136 0.213623C3.49712 0.213623 3.65609 0.279471 3.7733 0.396681C3.89051 0.513892 3.95636 0.672863 3.95636 0.838623V1.46362H6.45636V0.838623C6.45636 0.672863 6.52221 0.513892 6.63942 0.396681C6.75663 0.279471 6.9156 0.213623 7.08136 0.213623C7.24712 0.213623 7.40609 0.279471 7.5233 0.396681C7.64051 0.513892 7.70636 0.672863 7.70636 0.838623V1.46362H10.2064V0.838623C10.2064 0.672863 10.2722 0.513892 10.3894 0.396681C10.5066 0.279471 10.6656 0.213623 10.8314 0.213623C10.9971 0.213623 11.1561 0.279471 11.2733 0.396681C11.3905 0.513892 11.4564 0.672863 11.4564 0.838623V1.46362H13.3314C13.4971 1.46362 13.6561 1.52947 13.7733 1.64668C13.8905 1.76389 13.9564 1.92286 13.9564 2.08862ZM12.7064 2.71362H11.4564V3.33862C11.4564 3.50438 11.3905 3.66335 11.2733 3.78056C11.1561 3.89777 10.9971 3.96362 10.8314 3.96362C10.6656 3.96362 10.5066 3.89777 10.3894 3.78056C10.2722 3.66335 10.2064 3.50438 10.2064 3.33862V2.71362H7.70636V3.33862C7.70636 3.50438 7.64051 3.66335 7.5233 3.78056C7.40609 3.89777 7.24712 3.96362 7.08136 3.96362C6.9156 3.96362 6.75663 3.89777 6.63942 3.78056C6.52221 3.66335 6.45636 3.50438 6.45636 3.33862V2.71362H3.95636V3.33862C3.95636 3.50438 3.89051 3.66335 3.7733 3.78056C3.65609 3.89777 3.49712 3.96362 3.33136 3.96362C3.1656 3.96362 3.00663 3.89777 2.88942 3.78056C2.77221 3.66335 2.70636 3.50438 2.70636 3.33862V2.71362H1.45636V14.5886C1.45636 14.9201 1.58806 15.2381 1.82248 15.4725C2.0569 15.7069 2.37484 15.8386 2.70636 15.8386H11.4564C11.7879 15.8386 12.1058 15.7069 12.3402 15.4725C12.5747 15.2381 12.7064 14.9201 12.7064 14.5886V2.71362Z" fill="white" fill-opacity="0.7"/>
</svg>
