<svg width="20" height="14" viewBox="0 0 20 14" fill="none" xmlns="http://www.w3.org/2000/svg">
<path d="M9.16016 9.33745C9.99782 8.77979 10.6338 7.96736 10.974 7.0203C11.3142 6.07325 11.3406 5.04185 11.0493 4.07862C10.758 3.1154 10.1645 2.27149 9.35644 1.67169C8.54841 1.07189 7.56882 0.748047 6.56251 0.748047C5.5562 0.748047 4.5766 1.07189 3.76858 1.67169C2.96056 2.27149 2.36701 3.1154 2.0757 4.07862C1.7844 5.04185 1.81081 6.07325 2.15102 7.0203C2.49124 7.96736 3.12719 8.77979 3.96485 9.33745C2.44961 9.89591 1.15556 10.9293 0.27579 12.2835C0.229552 12.3523 0.197435 12.4295 0.181306 12.5107C0.165177 12.592 0.165358 12.6756 0.181837 12.7568C0.198317 12.838 0.230767 12.915 0.277301 12.9836C0.323835 13.0521 0.383525 13.1107 0.452901 13.1559C0.522277 13.2012 0.599955 13.2322 0.681421 13.2472C0.762886 13.2621 0.846514 13.2607 0.927443 13.2431C1.00837 13.2255 1.08499 13.1919 1.15284 13.1444C1.22068 13.0969 1.27841 13.0364 1.32266 12.9664C1.89016 12.0935 2.66669 11.3763 3.58176 10.8798C4.49682 10.3833 5.52142 10.1232 6.56251 10.1232C7.6036 10.1232 8.6282 10.3833 9.54326 10.8798C10.4583 11.3763 11.2349 12.0935 11.8024 12.9664C11.894 13.1026 12.0356 13.1973 12.1966 13.23C12.3575 13.2626 12.5248 13.2307 12.6623 13.1409C12.7999 13.0512 12.8966 12.911 12.9316 12.7506C12.9665 12.5901 12.937 12.4224 12.8492 12.2835C11.9695 10.9293 10.6754 9.89591 9.16016 9.33745ZM3.12501 5.43745C3.12501 4.75758 3.32661 4.09297 3.70433 3.52768C4.08205 2.96238 4.61891 2.52179 5.24703 2.26161C5.87515 2.00144 6.56632 1.93336 7.23313 2.066C7.89994 2.19864 8.51245 2.52603 8.99319 3.00677C9.47393 3.48751 9.80132 4.10002 9.93396 4.76683C10.0666 5.43363 9.99852 6.1248 9.73834 6.75292C9.47817 7.38104 9.03757 7.91791 8.47228 8.29562C7.90699 8.67334 7.24238 8.87495 6.56251 8.87495C5.65114 8.87391 4.7774 8.51142 4.13297 7.86699C3.48854 7.22255 3.12604 6.34881 3.12501 5.43745ZM19.5422 13.1484C19.4034 13.2389 19.2343 13.2706 19.0721 13.2365C18.9099 13.2023 18.7679 13.1052 18.6774 12.9664C18.1105 12.093 17.3341 11.3755 16.4189 10.8791C15.5036 10.3828 14.4787 10.1236 13.4375 10.1249C13.2717 10.1249 13.1128 10.0591 12.9956 9.94189C12.8784 9.82468 12.8125 9.66571 12.8125 9.49995C12.8125 9.33419 12.8784 9.17522 12.9956 9.05801C13.1128 8.9408 13.2717 8.87495 13.4375 8.87495C13.9437 8.87447 14.4436 8.76219 14.9014 8.54613C15.3592 8.33007 15.7636 8.01557 16.0858 7.62508C16.408 7.2346 16.6399 6.77779 16.7651 6.28727C16.8902 5.79676 16.9055 5.28466 16.8098 4.78756C16.7141 4.29047 16.5098 3.82064 16.2114 3.41166C15.9131 3.00268 15.5281 2.66464 15.084 2.42169C14.6399 2.17874 14.1476 2.03688 13.6423 2.00625C13.137 1.97562 12.6312 2.05696 12.1609 2.24448C12.0843 2.27762 12.0017 2.29506 11.9182 2.29577C11.8347 2.29647 11.7519 2.28043 11.6747 2.24859C11.5975 2.21675 11.5274 2.16975 11.4687 2.11038C11.4099 2.05101 11.3637 1.98046 11.3326 1.90291C11.3016 1.82536 11.2865 1.74238 11.2881 1.65887C11.2897 1.57536 11.308 1.49302 11.3419 1.41671C11.3759 1.3404 11.4248 1.27167 11.4858 1.21458C11.5467 1.15749 11.6185 1.1132 11.6969 1.08432C12.773 0.655145 13.97 0.639701 15.0568 1.04097C16.1437 1.44224 17.0434 2.23179 17.5825 3.2573C18.1216 4.28282 18.2618 5.47164 17.976 6.59442C17.6903 7.71719 16.9989 8.69437 16.0352 9.33745C17.5504 9.89591 18.8445 10.9293 19.7242 12.2835C19.8148 12.4224 19.8464 12.5915 19.8123 12.7537C19.7782 12.9158 19.681 13.0578 19.5422 13.1484Z" fill="white"/>
</svg>
