<svg width="17" height="13" viewBox="0 0 17 13" fill="none" xmlns="http://www.w3.org/2000/svg">
<path d="M14.8658 0.472168H2.36581C1.86853 0.472168 1.39162 0.669712 1.03999 1.02134C0.688358 1.37297 0.490814 1.84989 0.490814 2.34717V11.0972C0.490814 11.5944 0.688358 12.0714 1.03999 12.423C1.39162 12.7746 1.86853 12.9722 2.36581 12.9722H14.8658C15.3631 12.9722 15.84 12.7746 16.1916 12.423C16.5433 12.0714 16.7408 11.5944 16.7408 11.0972V2.34717C16.7408 1.84989 16.5433 1.37297 16.1916 1.02134C15.84 0.669712 15.3631 0.472168 14.8658 0.472168ZM1.74081 4.22217H15.4908V5.47217H11.1158C10.9501 5.47217 10.7911 5.53802 10.6739 5.65523C10.5567 5.77244 10.4908 5.93141 10.4908 6.09717C10.4908 6.59445 10.2933 7.07136 9.94164 7.42299C9.59001 7.77462 9.1131 7.97217 8.61581 7.97217C8.11853 7.97217 7.64162 7.77462 7.28999 7.42299C6.93836 7.07136 6.74081 6.59445 6.74081 6.09717C6.74081 5.93141 6.67497 5.77244 6.55776 5.65523C6.44055 5.53802 6.28157 5.47217 6.11581 5.47217H1.74081V4.22217ZM2.36581 1.72217H14.8658C15.0316 1.72217 15.1905 1.78802 15.3078 1.90523C15.425 2.02244 15.4908 2.18141 15.4908 2.34717V2.97217H1.74081V2.34717C1.74081 2.18141 1.80666 2.02244 1.92387 1.90523C2.04108 1.78802 2.20005 1.72217 2.36581 1.72217ZM14.8658 11.7222H2.36581C2.20005 11.7222 2.04108 11.6563 1.92387 11.5391C1.80666 11.4219 1.74081 11.2629 1.74081 11.0972V6.72217H5.55331C5.69676 7.4286 6.08002 8.06371 6.63815 8.5199C7.19629 8.97609 7.89497 9.2253 8.61581 9.2253C9.33666 9.2253 10.0353 8.97609 10.5935 8.5199C11.1516 8.06371 11.5349 7.4286 11.6783 6.72217H15.4908V11.0972C15.4908 11.2629 15.425 11.4219 15.3078 11.5391C15.1905 11.6563 15.0316 11.7222 14.8658 11.7222Z" fill="white" fill-opacity="0.7"/>
</svg>
