<svg width="21" height="21" viewBox="0 0 21 21" fill="none" xmlns="http://www.w3.org/2000/svg">
<path d="M17.1675 3.49609H3.41748C3.08596 3.49609 2.76802 3.62779 2.5336 3.86221C2.29918 4.09663 2.16748 4.41457 2.16748 4.74609V15.9961C2.16748 16.3276 2.29918 16.6456 2.5336 16.88C2.76802 17.1144 3.08596 17.2461 3.41748 17.2461H17.1675C17.499 17.2461 17.8169 17.1144 18.0514 16.88C18.2858 16.6456 18.4175 16.3276 18.4175 15.9961V4.74609C18.4175 4.41457 18.2858 4.09663 18.0514 3.86221C17.8169 3.62779 17.499 3.49609 17.1675 3.49609ZM17.1675 15.9961H3.41748V4.74609H17.1675V15.9961ZM14.0425 7.24609C14.0425 8.24066 13.6474 9.19448 12.9441 9.89774C12.2409 10.601 11.287 10.9961 10.2925 10.9961C9.29792 10.9961 8.34409 10.601 7.64083 9.89774C6.93757 9.19448 6.54248 8.24066 6.54248 7.24609C6.54248 7.08033 6.60833 6.92136 6.72554 6.80415C6.84275 6.68694 7.00172 6.62109 7.16748 6.62109C7.33324 6.62109 7.49221 6.68694 7.60942 6.80415C7.72663 6.92136 7.79248 7.08033 7.79248 7.24609C7.79248 7.90913 8.05587 8.54502 8.52471 9.01386C8.99355 9.4827 9.62944 9.74609 10.2925 9.74609C10.9555 9.74609 11.5914 9.4827 12.0602 9.01386C12.5291 8.54502 12.7925 7.90913 12.7925 7.24609C12.7925 7.08033 12.8583 6.92136 12.9755 6.80415C13.0927 6.68694 13.2517 6.62109 13.4175 6.62109C13.5832 6.62109 13.7422 6.68694 13.8594 6.80415C13.9766 6.92136 14.0425 7.08033 14.0425 7.24609Z" fill="white"/>
</svg>
